# xmcd
#
# Track frame offsets: 
#        150
#        23019
#        41882
#        59136
#        78245
#        96015
#        108198
#        131589
#        149603
#        169525
#        182405
#        199402
#        220878
#        236391
#        259692
#
# Disc length: 3622 seconds
#
# Revision: 18
# Processed by: cddbd v1.5.2PL0 Copyright (c) Steve Scherf et al.
# Submitted via: ExactAudioCopyFreeDBPlugin 1.0
#
DISCID=d10e240f
DTITLE=Joe Cocker - 2003 - The Ultimate Collection 1968-2003 [CD 1]
DYEAR=2003
DGENRE=Rock, Blues Rock
TTITLE0=Unchain My Heart
TTITLE1=Feelin' Alright
TTITLE2=Summer In The City
TTITLE3=You Can Leave Your Hat On
TTITLE4=Up Where We Belong
TTITLE5=You Are So Beautiful
TTITLE6=With A Little Help From My Friends
TTITLE7=Cry Me A River (Live)
TTITLE8=The Letter (Live)
TTITLE9=Delta Lady
TTITLE10=Many Rivers To Cross
TTITLE11=When The Night Comes
TTITLE12=Night Calls
TTITLE13=Don't You Love Me Anymore
TTITLE14=She Came In Through The Bathroom Window
EXTD=CD 2003 - CD 1/2\nParlophone 7243 5 96424 2 0
EXTT0=
EXTT1=
EXTT2=
EXTT3=
EXTT4=feat. Jennifer Warnes
EXTT5=
EXTT6=
EXTT7=
EXTT8=
EXTT9=
EXTT10=
EXTT11=
EXTT12=
EXTT13=
EXTT14=
PLAYORDER=
